# xmcd CD database file
#
# Track frame offsets:
#	150
#	19912
#	38419
#	57527
#	67092
#	81955
#	94417
#	109784
#	122936
#	142957
#	155727
#	172563
#	188870
#	204743
#
# Disc length: 3161 seconds
#
# Revision: 5
# Processed by: cddbd v1.5.2PL0 Copyright (c) Steve Scherf et al.
# Submitted via: CDex 1.70beta2
#
DISCID=c50c570e
DTITLE=Andreas Sobczyk - boogie, blues and more
DYEAR=2007
DGENRE=Jazz
TTITLE0=CowCow Blues
TTITLE1=Just for you
TTITLE2=Down the drain
TTITLE3=St. Palace Henry
TTITLE4=After hours
TTITLE5=Beebo's Boogie
TTITLE6=Dupree Blues
TTITLE7=Shreveport Blues
TTITLE8=Maple leaf rag
TTITLE9=Keep your tail up
TTITLE10=Blues for Kandie
TTITLE11=Toni's Shuffle
TTITLE12=Boogie Woogie Jump
TTITLE13=Rockin you to sleep
EXTD=YEAR: 2007
EXTT0=
EXTT1=
EXTT2=
EXTT3=
EXTT4=
EXTT5=
EXTT6=
EXTT7=
EXTT8=
EXTT9=
EXTT10=
EXTT11=
EXTT12=
EXTT13=
PLAYORDER=
